<svg xmlns="http://www.w3.org/2000/svg" viewBox="0 0 30 30"><path d="M6.4 17.4c0-.4-.3-.6-.6-.6H.9c-.4 0-.6.3-.6.6s.3.6.6.6h4.8c.4.1.7-.2.7-.6zm11-11c.4 0 .6-.3.6-.6V.9c0-.4-.3-.6-.6-.6s-.6.3-.6.6v4.8c0 .4.3.7.6.7zM8.7 9.6c.1.1.3.2.4.2s.3-.1.5-.2c.3-.3.3-.7 0-.9L6.2 5.3c-.3-.3-.7-.3-.9 0-.3.2-.3.6 0 .9l3.4 3.4zm20.9-4.3c-.3-.3-.7-.3-.9 0l-.1.1-4.8 4.8c-1.7-1.6-3.9-2.4-6.3-2.4-2.5 0-4.9 1-6.6 2.7-3.5 3.5-3.6 9.2-.3 12.9l-5.2 5.2c-.3.3-.3.7 0 .9.1.1.3.2.5.2s.3-.1.5-.2l20-20 3.4-3.4c0-.2 0-.6-.2-.8zm-17.9 6.1C13.2 9.9 15.2 9 17.4 9c2 0 3.9.7 5.4 2.1L11.4 22.5c-2.8-3.2-2.7-8 .3-11.1z"/></svg>