<svg enable-background="new 0 0 279.6 200.6" viewBox="0 0 279.6 200.6" xmlns="http://www.w3.org/2000/svg"><path d="m0 0h61.8v29.7c-9.3 0-17.9 0-26.8 0v26.4h25.6c-.4 8.9-.8 17.3-1.2 26.4-6.7 0-13.3.3-19.9-.1-4.3-.2-5.4 1.3-5.2 5.4.3 9.6.1 19.3.1 29.4h24.1c-.4 9.6-.8 18.6-1.2 27.4-17.3 0-34.3 0-52.1 0-1.8-47.6-3.5-95.8-5.2-144.6z"/><path d="m192.7 56.3h10.4c2.9 15.7 5.7 31.3 8.5 46.9h1c3-13.6 6.2-27.1 8.8-40.7 1-5.2 2.8-7.3 8-6.4 1.9.3 3.9.1 6.5.1-2.9 13.4-5.8 26.4-8.6 39.3-3.2 14.6-6.6 29.2-9.4 43.9-.9 5-3 6.8-7.8 6-1.1-.2-2.3 0-4 0-2.6-13.9-5.1-27.5-7.6-41.2-.3-.1-.7-.1-1-.2-2.5 13.6-5 27.3-7.5 40.7-.5.3-.7.4-.8.4-9.4 1-9.3 1-11.3-8.1-5.5-24.9-11-49.7-16.5-74.5-.4-1.9-.8-3.9-1.2-6.1h12.7c3.5 15.8 7 31.7 10.5 47.7h1c2.6-15.8 5.4-31.6 8.3-47.8z"/><path d="m70.1 56.4c10.2-.6 10.2-.6 13.5 8.1 5.3 13.9 10.7 27.8 16.7 41.7 0-16.5 0-32.9 0-49.7h12.3v88.2c-8.2 2.3-9.8 1.6-12.8-6.1-5.6-14-11.2-28-17.5-41.8v48.4c-4.3 0-8.2 0-12.2 0 0-29.8 0-59.3 0-88.8z"/><path d="m5.5 156.4h52v15c0 8.5-.2 17-.1 25.5 0 2.9-.7 4.4-3.9 4.1-3.8-.4-7.6-.9-11.4-1-3.3-.2-6.6 0-9.9.1-8.8.4-17.6.8-26.8 1.3.1-15.4.1-30 .1-45z"/><path d="m235.9 118.7h12.5c.3 2.8.4 5.4.9 7.9 1.4 6.2 6.2 8.8 12 6.7 4.7-1.7 7.3-7.5 4.5-12.4-2.4-4.1-5.7-7.7-8.9-11.3-4.5-4.9-9.5-9.4-13.7-14.5-5.6-6.7-8-14.6-6.1-23.3 2.3-10.8 10.7-17 22.1-16.9 11.3.1 17.7 5.6 19.7 17.1.6 3.2.6 6.6 1 10.3-4.4 0-8.3 0-12.6 0-.2-1.9-.3-3.8-.5-5.7-.6-6.8-4-10.1-9.6-9.5-5.5.6-9.4 6.2-7.8 12.3.9 3.4 2.8 6.8 5.1 9.5 3.8 4.4 8.3 8.1 12.4 12.3 6.9 7 13 14.3 12.7 25-.4 12.6-7.5 19.9-20.3 20.6-13.2.7-21.2-5.7-22.8-18.4-.2-3-.3-6.1-.6-9.7z"/><path d="m156.2 145.1c-12.7 0-24.9 0-37.5 0 0-29.7 0-59 0-88.7h37.4v12.3c-8.3 0-16.4 0-24.8 0v25.4h15v12.9c-4.9 0-9.8 0-15 0v25.5h24.9z"/></svg>