<svg height="128pt" viewBox="0 0 1328 128" width="1328pt" xmlns="http://www.w3.org/2000/svg"><path d="M53.5 39c-5.4 11.6-10.3 20.9-10.8 20.7-.5-.1-4.5-9.4-8.9-20.5L25.9 19H.2l16.5 39.7C25.8 80.6 34 100.5 35 103c1.6 4 2.1 4.5 5.3 4.8l3.6.3 11.3-22.5C61.4 73.2 66.7 63 67 63s5.6 10.2 11.8 22.6l11.3 22.5 3.6-.3 3.7-.3L108.8 80c6.2-15.1 14.4-35 18.2-44.3l6.9-16.7h-25.6L100 40c-4.5 11.6-8.5 20.8-8.8 20.5s-5-9.9-10.4-21.3L71 18.5l-3.8-.3-3.8-.3zm243.6-19.4c-8 2.1-14.9 6.2-21.1 12.4-21.3 21.5-15.1 57.1 12.4 70.5 19.1 9.4 41.7 6.1 56.7-8.1 25.5-24.4 13.8-65.6-21.2-74.9-6.8-1.9-19.8-1.8-26.8.1zM323 41.8c7.3 3.6 11.3 9.8 11.8 18.6.6 9-1.2 14.3-6.7 19.7-5.5 5.6-10.8 7.3-19.6 6.6-13.4-1-21.4-9.9-21.5-23.8 0-12.4 7.5-22.1 18.6-23.8 6.8-1.1 11-.4 17.4 2.7zm144.8-3.1c-5.4 11.4-10.1 20.9-10.6 21.1-.4.1-4.5-8.9-8.9-20l-8.1-20.3-12.6-.3c-6.9-.1-12.6 0-12.6.4 0 .3 8.2 20.4 18.1 44.5l18.2 43.9h7.2l11.3-22.5c6.2-12.4 11.6-22.4 12-22.1.4.2 5.6 10.4 11.7 22.5l11 22.1h7l18-43.6c9.9-24 18.2-44.1 18.3-44.6.2-.5-5.2-.7-12.4-.6l-12.8.3-8.1 20.2c-4.4 11.1-8.3 20.4-8.6 20.7s-5.1-9-10.6-20.7l-10-21.2-3.9-.3-3.9-.3zm243.3-18C706.3 31.1 674 105 674 105.5c0 .3 5.5.4 12.2.3l12.1-.3 3.2-7.5 3.2-7.5 12.5-.3 12.6-.3 3.3 8.1 3.4 8H761l-1.5-3.8c-.9-2-9.3-21.8-18.8-44L723.5 18h-5.6c-5.1 0-5.7.2-6.8 2.7zm9.8 39.8c1.6 4.4 3.2 8.8 3.6 9.7.6 1.6 0 1.8-6.9 1.8-4.2 0-7.6-.3-7.6-.7 0-1.2 7.2-19.4 7.6-19.1.1.2 1.6 3.9 3.3 8.3zm234.7-31.3c-2.9 6.2-7.4 15.9-10.1 21.6-2.6 5.6-5.1 10-5.4 9.7-.3-.4-4.2-9.7-8.6-20.8l-8.1-20.2-12.8-.3c-7.2-.1-12.6.1-12.4.6.1.5 8.4 20.6 18.3 44.5l18 43.7h7l11.3-22.5c6.1-12.4 11.6-22.5 12-22.5.5 0 5.7 10.1 11.7 22.5l10.8 22.5h7.4l18.2-43.9C1022.8 40 1031 20 1031 19.6s-5.7-.5-12.6-.4l-12.6.3-8.1 20.3c-4.4 11.1-8.5 20.1-8.9 20-.5-.2-5.2-9.7-10.6-21.1L968.5 18h-7.6zm204.1 31c-10.2 23.3-18.9 43.1-19.3 44.1-.6 1.6.2 1.7 11.6 1.5l12.3-.3 3.2-7.5 3.2-7.5 12.5-.3 12.6-.3 3.3 8.1 3.4 8h12.3c6.8 0 12.2-.4 12-.9-.1-.4-8.6-20.2-18.7-44L1189.7 18h-11.4zm27.7 1.7c2 5.1 3.6 9.5 3.6 9.7s-3.4.4-7.5.4-7.5-.3-7.5-.7c0-1 7.3-19.4 7.6-19 .1.1 1.8 4.4 3.8 9.6zM158 62.5V106h23V71l16.3.2 16.2.3.3 17.3.2 17.2h22V19h-22v32h-33V19h-23zm414 0V106h23V71h33v35h23V19h-23v32h-33V19h-23zM766 29v10h27v67h23V39h27V19h-77zm289 33.5V106h63V86h-40.1l.3-7.8.3-7.7 13.8-.3 13.7-.3V52h-28V39h39V19h-62zm193-.1V106h23V79h9.8l10.1 13.5L1301 106h12.6c9.8 0 12.3-.3 11.7-1.3-.4-.6-5.3-7.6-11-15.4S1304 74.9 1304 74.6s2.2-2.7 4.9-5.4c6.1-6.1 8.5-12.6 7.9-22.1-.5-8.9-3.8-15.4-10.4-20.3-8.4-6.4-11.3-7-36.1-7.6l-22.3-.4zm40.9-21.9c5.8 2.9 6.6 12.4 1.4 16.5-2.1 1.6-4 2-10.9 2h-8.4V39h7.5c4.7 0 8.7.6 10.4 1.5z"/></svg>