<svg height="407pt" viewBox="0 0 5016 407" width="6688" xmlns="http://www.w3.org/2000/svg"><path d="M1988 3.1c-25.6 3.3-49.5 11.5-66.8 23-8.2 5.4-21.9 18.4-28.2 26.8-6.6 8.6-14.3 24.3-17.4 35.3-8.5 29.8-3.9 65.7 11.3 88.8 5.7 8.8 20.8 23.7 30.1 29.8 14.4 9.5 33.7 17.9 78 33.7 34.4 12.3 45.2 18.2 52.2 28.7 5 7.3 6.1 11.6 5.6 20.8-1.2 21.2-18.3 34.7-46.3 36.6-28.3 1.9-70.2-15.9-99.2-42.1-6.3-5.7-7.7-6.5-8.7-5.4-3.8 4-44.6 65.4-44.2 66.4.2.7 5.1 5 10.8 9.5 28.5 23 60.8 38.8 93.3 45.6 22.3 4.7 53.8 4.4 78.7-.7 50.5-10.2 88.8-42.3 102.6-85.9 6.9-21.8 7.6-44.4 2.1-65.7-2.6-10-10.3-26-16.7-34.4-11.3-14.9-29.5-28.4-50.7-37.7-4.9-2.1-24.3-9.6-43-16.6-40.5-15.2-50.7-20-57.9-27-7.5-7.4-10-13.1-10-23.1 0-9.5 2.3-15.1 8.7-21.5 7.6-7.5 19.3-11.6 35.7-12.7 26.4-1.6 60.3 11.7 85.7 33.5l7.2 6.2 19.6-32.2c10.8-17.6 19.4-32.6 19.1-33.3-.7-1.8-10.3-9.7-18.7-15.4-21.7-14.4-49.9-25.3-78.2-30.1-12.7-2.1-41.4-2.6-54.7-.9zm445.3 128.6c.4 136.7.4 135.8 5.2 159.9 6.9 34.3 22.5 60.8 47 79.8 14.6 11.3 28.7 18.7 46.5 24.4 20.8 6.6 39.9 9.2 68 9.2 28.7 0 47.5-2.6 69-9.6 23.6-7.7 41.7-19.1 58.3-36.5 16.1-16.8 25.5-33.9 31.6-57.1 6.8-25.6 6.5-18.4 6.8-166.1l.4-133.7H2671v124.8c0 79.9-.4 127.8-1 133.2-1.5 11.9-3.5 19.3-7.6 28-4.8 10.1-16.7 22-27.4 27.2-12.3 6-18.4 7.3-35.5 7.3-17 0-24.1-1.6-37-8.3-8.3-4.3-20.7-16.2-24.7-23.7s-7.5-20.7-8.7-33c-.7-7.2-1.1-51.7-1.1-133.2V2h-95.1zM3239.7 3c-43.5 3.3-81.3 16.9-112.5 40.5-40.7 30.6-65.1 74.7-72.4 130.5-1.5 12.1-1.5 47.8.1 59 3.5 25.1 9.5 45.8 18.6 64.8 27.9 58.1 81 94.8 152 105.4 13.5 2 55.8 1.7 71-.6 52.6-7.6 87.9-23.4 124.4-55.7l9.1-8V176h-172v70h82v58l-5.2 4.1c-16.9 13.4-47.3 20.9-80.1 19.6-30.6-1.1-54.8-11.6-74.8-32.4-21.6-22.4-32.9-53.6-32.9-90.9 0-65 31.9-110.2 86.4-122.6 12-2.7 34.8-2.9 48.6-.4 25.7 4.6 48.1 16.3 68.1 35.3l7.6 7.3 30.2-26.2c16.5-14.3 30.1-26.6 30.1-27.3 0-1.6-20.9-21.9-28.7-27.8-26.4-20.2-60.1-33.3-97.3-38.1-15-1.9-38.8-2.6-52.3-1.6zM2 203.9V404h94V257.3l36.8-.6c25.6-.4 39.8-1 47.1-2.1 35.8-5.4 58.8-16.2 78.8-36.9 22.6-23.5 32.3-49.8 32.3-87.7 0-24.6-3.5-41.3-12.5-59.5-14.9-30.3-43.4-52.1-78.8-60.5-22.2-5.3-21.5-5.2-112.4-5.7L2 3.9zM153.7 79.5c26.5 5 41.3 23.3 41.3 51 0 21.4-9.2 38.1-25.3 46-11.3 5.5-17.9 6.5-47.4 7.2l-26.3.6V78h24.9c17.8 0 27.2.4 32.8 1.5zM756 5.1c-11.7 1.3-31 5.6-43.3 9.6-14.2 4.7-37.6 16.4-49.2 24.8-43.9 31.6-70.4 79.9-76.6 139.3-1.5 14.8-.6 51.2 1.6 65.2 2.4 15.5 6.9 31.9 12.6 46 24 60 74.8 100.1 141.9 112 15.7 2.8 49.3 3.8 66.2 2.1 59.1-6.2 108.9-34.8 139-79.7 19.6-29.4 30.1-62.4 32.9-103.8 3.2-47.2-7.5-95-29-129.6-30.3-48.7-80.8-79.2-142.3-85.9-11.2-1.3-42.8-1.2-53.8 0zM796.6 83c24.3 3.1 44.6 13.1 61 30.2 21 21.9 31.8 49.8 33.1 85.8 2.6 71.6-37.7 120.9-101.3 123.7-51.9 2.3-91.5-25-106.7-73.4-4.3-13.7-6-26.3-6-44.3 0-31 6.7-55.8 21-77.3 21.6-32.5 59.5-49.6 98.9-44.7zM1277 204v200h95V257h27.3c51.9 0 77.5-3.8 101.5-15 21.6-10.1 40.5-27.8 51.6-48.1 18.1-33.1 19.4-86.1 3.1-120.6-6-12.8-10.6-19.4-20.8-30-22.1-22.9-50.3-34.8-90.7-38.3-6.3-.5-46.3-1-89.2-1H1277zm152.8-124.5c16.2 3.3 29 12.3 35.1 24.7 13.2 26.9 3.7 61.4-20.1 72.6-11.2 5.3-18.6 6.4-47 7l-25.8.5V78h25c18.6 0 27.1.4 32.8 1.5zM3867.5 5.2c-.3.7-33.8 89.9-74.5 198.3-40.8 108.3-74.3 198-74.6 199.2l-.6 2.3h97.9l6.6-18.8c3.6-10.3 10-28.5 14.3-40.5l7.6-21.7h141.4l11.3 32.2c6.3 17.8 12.7 36 14.3 40.5l3 8.3h51.5c31.1 0 51.3-.4 51.1-.9-.1-.5-34-90.7-75.3-200.5L3966.5 4h-49.3c-38.5 0-49.4.3-49.7 1.2zm71.9 174.9c13.1 37.9 23.6 69.2 23.4 69.5-.3.2-22.1.3-48.4.2l-47.9-.3 23.9-69.3c13.1-38 24.2-69.2 24.5-69.2s11.3 31.1 24.5 69.1zm464.6 24.3V405h95V252h28.5l41.7 76.3 41.7 76.2 55.1.3c30.2.1 55 0 55-.3 0-.2-22.5-37.4-50-82.5-27.5-45.2-49.8-82.5-49.5-83 .4-.6 1.1-1 1.7-1 2.4 0 20.2-9.2 27.1-13.9 8.7-6 21.7-19.1 27.4-27.6 12.1-18.1 18.5-38.8 19.9-64.9 2-35.8-10-67.5-33.9-90.2-19.6-18.5-44.4-29.6-78.4-35-9.4-1.5-21.6-1.8-96-2.1l-85.3-.4zm156.7-124.9c20.4 3.9 36.3 18.2 40.2 36.3 2.6 12.4.7 28.1-4.6 37.2-5.7 9.6-18.2 19-30 22.5-9 2.6-20.4 3.5-44.4 3.5H4498V78h27.4c20.1 0 29.5.4 35.3 1.5zm365.8 181.9c-30.3 7-51.8 30.2-56.5 61.1-4 26.4 8.7 55.2 31 70 40.2 26.7 93.7 8.8 109.6-36.7 3.6-10.1 4.5-29.4 1.9-40.1-6-24.9-23.5-44-48-52.3-9.8-3.3-28.1-4.3-38-2z"/></svg>