<svg height="124" viewBox="0 0 987 93" width="1316" xmlns="http://www.w3.org/2000/svg"><path d="M629.7 4.2C625.3 11.9 582 92 582 92.5c0 .3 4.7.5 10.4.5h10.5l3.7-7 3.6-7h44.3l3.8 7 3.7 7h21.1l-1.2-2.2C677.5 82.2 633.6 1.3 633 .7c-.5-.5-1.9 1.1-3.3 3.5zm9.2 46l5.2 9.8h-11.6c-6.3 0-11.5-.3-11.5-.6 0-.4.8-2.1 1.8-3.8 1.1-1.7 3.6-6.2 5.7-9.9 2-3.8 4-6.5 4.4-6 .5.4 3.1 5.2 6 10.5zM5.6 7.2C4.7 13.9 0 76.2 0 80.8V85h16.7l1.2-16.3c.7-8.9 1.5-19.3 1.8-23l.6-6.8 9.6 10 9.6 10 9-9.8c5-5.4 9.1-9.8 9.3-9.6.1.1.9 8.5 1.7 18.6s1.8 20.3 2.1 22.6l.5 4.3h8.5c4.6 0 8.4-.3 8.4-.8 0-.4-1.4-17.6-3-38.2S73 7.3 73 5.7c0-2.3-.4-2.7-2.7-2.7S65 5.7 53.5 18C45.8 26.2 39.3 32.9 39 32.7c-.3-.1-6.8-6.8-14.4-15C8.9 1.1 6.5-.2 5.6 7.2zm64 37.5C72.5 82.3 72.4 79 70 79c-2.5 0-2.5-.3-4.5-23.5-.9-10.5-1.8-21.4-2.2-24.4l-.6-5.3-11.9 11.8-12 11.9-11.3-12C21.2 31 15.9 25.8 15.7 26c-.3.3-1.2 9.9-2.1 21.5C11.1 79.3 11.2 79 8.5 79c-2 0-2.2-.4-1.8-4.8.2-2.6 1.2-17 2.3-32.1 1.1-15 2.1-27.6 2.4-27.8.2-.2 6.4 6.1 13.7 14.1S38.7 43 39 43c.4 0 6.7-6.7 14.1-14.8 7.4-8.2 13.6-14.8 13.8-14.6s1.4 14.2 2.7 31.1zm35.7-40.3c.3.8 7.5 12.4 15.9 25.8l15.3 24.3.5 16 .5 16 9.3.3 9.2.3V57.4L172.5 31C181.6 16.5 189 4.2 189 3.8c0-.5-4.8-.7-10.6-.6l-10.7.3-10.1 16.2c-5.6 8.9-10.3 16.2-10.6 16.2-.3.1-5-7.2-10.6-16.2L126.3 3.5l-10.8-.3c-9-.2-10.7 0-10.2 1.2zm29.2 24.1C141.1 39.2 146.7 48 147 48s5.9-8.6 12.4-19.1c6.6-10.5 12.5-19.3 13.2-19.6.7-.2 2.2-.3 3.3-.1 1.8.3.3 3.1-11.9 22.6l-14 22.4V80h-6V54.2l-7.4-11.9c-4-6.5-10.3-16.6-13.9-22.6L116 9h3.3c3.1 0 3.6.7 15.2 19.5zM225 49v44.1l22.3-.3 22.3-.3 6.4-3.2c16.5-8.1 25.1-22 25.1-40.2 0-18.1-8.8-32.1-25.1-40l-7.5-3.6-21.7-.3-21.8-.4zm44-22.4c15.4 8.3 18.6 27.5 6.6 40.2-5.5 5.9-9.9 7.5-21.3 8l-10.3.4V22.7l9.8.5c8.4.4 10.6.9 15.2 3.4zm92.9-19.3c-26 8.9-37.4 38.1-24.7 63.2 3.4 6.5 12.2 14.9 19.6 18.6 6.5 3.3 7.1 3.4 18.8 3.4 11.9 0 12.1 0 19.6-3.8 25.6-12.6 32.5-46 14.2-68.4-10.9-13.3-30.7-18.7-47.5-13zm23.7 18.2c12.4 5.1 19.1 22.2 13.4 34-9.5 19.5-35.1 20.4-45.5 1.4-11.2-20.7 10.3-44.5 32.1-35.4zm79.3-18.3c0 1.3-1.5 21.1-3.2 44.1L458.4 93h9.3c6.8 0 9.3-.3 9.3-1.3 0-3.7 3.2-44.4 3.7-45.7.3-1 3.6 1.9 10.7 9.4l10.2 10.8 9.8-10.6c5.5-5.9 10.2-10.3 10.6-9.9s1.2 8.9 1.9 18.8 1.5 20.4 1.8 23.3l.6 5.2H544v-3.8c0-2-1.4-21-3-42.2s-3-39.3-3-40.3c0-1.2-.8-1.7-2.9-1.7-2.5 0-5.2 2.4-18.3 16.8l-15.4 16.8-15.3-16.8C473.1 7.6 470.3 5 467.9 5c-2.3 0-2.9.5-3 2.2zM723 49v44h18V5h-18zm70-.1V93h19l.2-24.6.3-24.6L838 68.4c22.5 21.7 25.9 24.5 28.8 24.6h3.2V5h-19l-.2 24.6-.3 24.6-25.4-24.3C803.5 9.1 799.2 5.5 796.4 5.2l-3.4-.3zm129 .1v44h65V75h-46v-8h34V49h-34V23h46V5h-65z"/></svg>