<svg viewBox="0 0 2113.5 306.6" xmlns="http://www.w3.org/2000/svg"><path d="M1229.7 307.2V-2.5c1.5-.1 2.9-.3 4.3-.3 38.7 0 77.3-.2 116 0 69.9.5 132.7 47 151.7 112 22.5 77.3-18.3 157.6-95.1 186.9-19.2 7.3-39 11-59.6 11h-111.5c-1.8.1-3.6.1-5.8.1zm82.6-67.4c13.5-.9 26.8-.7 39.6-2.8 31.7-5.3 55.2-21.7 65.5-53.5 5.4-16.5 5.8-33.4 2.9-50.4-3.9-22.2-14.6-40.2-33.7-52.7-22.7-14.9-48.1-15.8-74.3-14.7zM-4.1 307.1V-2.7h119.9c16.1 0 31.9 1.9 47.1 7.6 25.7 9.7 39.8 28.6 43.8 55.3 2.1 14.3 2 28.6-1.8 42.6-4.3 15.7-13.4 27.7-27.4 35.9-1.3.7-2.5 1.5-4.6 2.8 5.1 1.1 9.4 1.9 13.6 3 28.8 7.7 46.6 28.8 50.3 59.1 2.3 18.8 1.6 37.3-6.9 54.7-10.5 21.5-28.9 33.4-50.7 40.7-16.4 5.5-33.4 8-50.6 8-43.2.2-86.3.1-129.5.1-1 .1-1.8 0-3.2 0zm82.7-129v66.6c12.6 0 25 .6 37.2-.2 7.5-.5 15.1-2.7 22.1-5.5 8.9-3.5 14.4-10.5 15.9-20.2 3.1-19.6-5.9-34-25.6-37.1-16.1-2.7-32.7-2.6-49.6-3.6zm0-59.6c10.2 1.5 28.4-.3 36.4-3.4 11.3-4.4 16.9-13 17-26.1 0-13.3-5.3-21.8-16.8-26.1-11.8-4.5-24.1-3.9-36.6-3.7zM973 180.4c33.2 42.3 66 84.1 99.3 126.5-2.4.1-3.9.3-5.5.3-30.8 0-61.7 0-92.5.1-3.4 0-5.3-1.1-7.2-3.9-23.9-36.9-48-73.7-72.1-110.5-1-1.5-1.9-2.9-3.9-4v118h-82.2V-2.5c1.5-.1 2.9-.3 4.3-.3 40.5 0 81-.1 121.5 0 20 .1 39.5 3.3 57.8 11.8 30.2 14.2 45.8 38.6 49 71.2 1.7 17.3.1 34.3-6.7 50.5-10.9 25.8-30 41.8-57.1 48.3-1.2.5-2.5.9-4.7 1.4zM891.5 59.1v76.8c14.2 1.2 32.1-.8 42.3-4.6 14.9-5.7 22.5-17 22.6-33.6.1-16.5-7.4-27.9-22.4-33.7-13.7-5.3-28-5.2-42.5-4.9zm1219 58v68.2h-92.4V239h97.4v67.8h-180V-2.5h179.9v67.7h-97.3v51.9zm-1572.7 190h-82.4v-5.9c0-45.7 0-91.3.1-137 0-3.9-1-6.9-3.3-10.1-36.9-50.6-73.6-101.3-110.4-152-1-1.3-1.8-2.7-3.1-4.6 2.1-.1 3.7-.3 5.2-.3 29.5 0 59 .1 88.5-.1 3.5 0 5.7 1 7.7 3.9 17.6 25.3 35.4 50.4 53.2 75.6.9 1.3 1.9 2.7 3.3 4.5 1.3-1.7 2.3-3.1 3.3-4.5 17.8-25.3 35.6-50.7 53.6-75.9 1.2-1.7 3.8-3.4 5.8-3.4 30.8-.2 61.7-.1 92.5-.1.6 0 1.3.1 2.7.2-1.3 1.8-2.2 3.3-3.2 4.7-36.8 50.7-73.6 101.3-110.3 152.1-1.9 2.6-3.1 6.3-3.1 9.5-.2 45.7-.1 91.3-.1 137zm1216.7-.1h-81.7V-2.5h81.7z"/></svg>