<?xml version="1.0" encoding="utf-8"?>
<!-- Generator: Adobe Illustrator 19.2.0, SVG Export Plug-In . SVG Version: 6.00 Build 0)  -->
<svg version="1.1" id="Layer_1" xmlns="http://www.w3.org/2000/svg" xmlns:xlink="http://www.w3.org/1999/xlink" x="0px" y="0px"
	 viewBox="0 0 30 30" style="enable-background:new 0 0 30 30;" xml:space="preserve">
<g>
	<path d="M6.4,17.4c0-0.4-0.3-0.6-0.6-0.6H0.9c-0.4,0-0.6,0.3-0.6,0.6s0.3,0.6,0.6,0.6h4.8C6.1,18.1,6.4,17.8,6.4,17.4z"/>
	<path d="M17.4,6.4c0.4,0,0.6-0.3,0.6-0.6V0.9c0-0.4-0.3-0.6-0.6-0.6s-0.6,0.3-0.6,0.6v4.8C16.8,6.1,17.1,6.4,17.4,6.4z"/>
	<path d="M8.7,9.6C8.8,9.7,9,9.8,9.1,9.8s0.3-0.1,0.5-0.2c0.3-0.3,0.3-0.7,0-0.9L6.2,5.3C5.9,5,5.5,5,5.3,5.3C5,5.5,5,5.9,5.3,6.2
		L8.7,9.6z"/>
	<path d="M29.6,5.3c-0.3-0.3-0.7-0.3-0.9,0l-0.1,0.1c0,0,0,0,0,0l-4.8,4.8c-1.7-1.6-3.9-2.4-6.3-2.4c-2.5,0-4.9,1-6.6,2.7
		c-3.5,3.5-3.6,9.2-0.3,12.9l-5.2,5.2c-0.3,0.3-0.3,0.7,0,0.9c0.1,0.1,0.3,0.2,0.5,0.2s0.3-0.1,0.5-0.2l20-20c0,0,0,0,0,0l3.4-3.4
		C29.8,5.9,29.8,5.5,29.6,5.3z M11.7,11.4c1.5-1.5,3.5-2.4,5.7-2.4c2,0,3.9,0.7,5.4,2.1L11.4,22.5C8.6,19.3,8.7,14.5,11.7,11.4z"/>
</g>
</svg>
