<svg height="128pt" preserveAspectRatio="xMidYMid meet" viewBox="0 0 1328 128" width="1328pt" xmlns="http://www.w3.org/2000/svg"><g transform="matrix(.1 0 0 -.1 0 128)"><path d="m535 890c-54-116-103-209-108-207-5 1-45 94-89 205l-79 202h-128-129l165-397c91-219 173-418 183-443 16-40 21-45 53-48l36-3 113 225c62 124 115 226 118 226s56-102 118-226l113-225 36 3 37 3 114 275c62 151 144 350 182 443l69 167h-128-128l-83-210c-45-116-85-208-88-205s-50 99-104 213l-98 207-38 3-38 3z"/><path d="m2971 1084c-80-21-149-62-211-124-213-215-151-571 124-705 191-94 417-61 567 81 255 244 138 656-212 749-68 19-198 18-268-1zm259-222c73-36 113-98 118-186 6-90-12-143-67-197-55-56-108-73-196-66-134 10-214 99-215 238 0 124 75 221 186 238 68 11 110 4 174-27z"/><path d="m4678 893c-54-114-101-209-106-211-4-1-45 89-89 200l-81 203-126 3c-69 1-126 0-126-4 0-3 82-204 181-445l182-439h36 36l113 225c62 124 116 224 120 221 4-2 56-104 117-225l110-221h35 35l180 436c99 240 182 441 183 446 2 5-52 7-124 6l-128-3-81-202c-44-111-83-204-86-207s-51 90-106 207l-100 212-39 3-39 3z"/><path d="m7111 1073c-48-104-371-843-371-848 0-3 55-4 122-3l121 3 32 75 32 75 125 3 126 3 33-81 34-80h123 122l-15 38c-9 20-93 218-188 440l-172 402h-56c-51 0-57-2-68-27zm98-398c16-44 32-88 36-97 6-16 0-18-69-18-42 0-76 3-76 7 0 12 72 194 76 191 1-2 16-39 33-83z"/><path d="m9556 988c-29-62-74-159-101-216-26-56-51-100-54-97-3 4-42 97-86 208l-81 202-128 3c-72 1-126-1-124-6 1-5 84-206 183-445l180-437h35 35l113 225c61 124 116 225 120 225 5 0 57-101 117-225l108-225h37 37l182 439c99 241 181 441 181 445s-57 5-126 4l-126-3-81-203c-44-111-85-201-89-200-5 2-52 97-106 211l-97 207h-38-38z"/><path d="m11597 678c-102-233-189-431-193-441-6-16 2-17 116-15l123 3 32 75 32 75 125 3 126 3 33-81 34-80h123c68 0 122 4 120 9-1 4-86 202-187 440l-184 431h-57-57zm277-17c20-51 36-95 36-97s-34-4-75-4-75 3-75 7c0 10 73 194 76 190 1-1 18-44 38-96z"/><path d="m1580 655v-435h115 115v175 175l163-2 162-3 3-173 2-172h110 110v435 435h-110-110v-160-160h-165-165v160 160h-115-115z"/><path d="m5720 655v-435h115 115v175 175h165 165v-175-175h115 115v435 435h-115-115v-160-160h-165-165v160 160h-115-115z"/><path d="m7660 990v-100h135 135v-335-335h115 115v335 335h135 135v100 100h-385-385z"/><path d="m10550 655v-435h315 315v100 100h-200-201l3 78 3 77 138 3 137 3v89 90h-140-140v65 65h195 195v100 100h-310-310z"/><path d="m12480 656v-436h115 115v135 135h49 49l101-135 101-135h126c98 0 123 3 117 13-4 6-53 76-110 154s-103 144-103 147 22 27 49 54c61 61 85 126 79 221-5 89-38 154-104 203-84 64-113 70-361 76l-223 4zm409 219c58-29 66-124 14-165-21-16-40-20-109-20h-84v100 100h75c47 0 87-6 104-15z"/></g></svg>