<svg height="93pt" preserveAspectRatio="xMidYMid meet" viewBox="0 0 987 93" width="987pt" xmlns="http://www.w3.org/2000/svg"><g transform="matrix(.1 0 0 -.1 0 93)"><path d="m6297 888c-44-77-477-878-477-883 0-3 47-5 104-5h105l37 70 36 70h222 221l38-70 37-70h106 105l-12 22c-44 86-483 895-489 901-5 5-19-11-33-35zm92-460 52-98h-116c-63 0-115 3-115 6 0 4 8 21 18 38 11 17 36 62 57 99 20 38 40 65 44 60 5-4 31-52 60-105z"/><path d="m56 858c-9-67-56-690-56-736v-42h83 84l12 163c7 89 15 193 18 230l6 68 96-100 96-100 90 98c50 54 91 98 93 96 1-1 9-85 17-186s18-203 21-226l5-43h85c46 0 84 3 84 8 0 4-14 176-30 382s-30 387-30 403c0 23-4 27-27 27s-53-27-168-150c-77-82-142-149-145-147-3 1-68 68-144 150-157 166-181 179-190 105zm640-375c29-376 28-343 4-343-25 0-25 3-45 235-9 105-18 214-22 244l-6 53-119-118-120-119-113 120c-63 65-116 117-118 115-3-3-12-99-21-215-25-318-24-315-51-315-20 0-22 4-18 48 2 26 12 170 23 321 11 150 21 276 24 278 2 2 64-61 137-141s136-146 139-146c4 0 67 67 141 148 74 82 136 148 138 146s14-142 27-311z"/><path d="m1053 886c3-8 75-124 159-258l153-243 5-160 5-160 93-3 92-3v149 148l165 264c91 145 165 268 165 272 0 5-48 7-106 6l-107-3-101-162c-56-89-103-162-106-162-3-1-50 72-106 162l-101 162-108 3c-90 2-107 0-102-12zm292-241c66-107 122-195 125-195s59 86 124 191c66 105 125 193 132 196 7 2 22 3 33 1 18-3 3-31-119-226l-140-224v-129-129h-30-30v129 129l-74 119c-40 65-103 166-139 226l-67 107h33c31 0 36-7 152-195z"/><path d="m2250 440v-441l223 3 223 3 64 32c165 81 251 220 251 402 0 181-88 321-251 400l-75 36-217 3-218 4zm440 224c154-83 186-275 66-402-55-59-99-75-213-80l-103-4v262 263l98-5c84-4 106-9 152-34z"/><path d="m3619 857c-260-89-374-381-247-632 34-65 122-149 196-186 65-33 71-34 188-34 119 0 121 0 196 38 256 126 325 460 142 684-109 133-307 187-475 130zm237-182c124-51 191-222 134-340-95-195-351-204-455-14-112 207 103 445 321 354z"/><path d="m4649 858c0-13-15-211-32-441l-33-417h93c68 0 93 3 93 13 0 37 32 444 37 457 3 10 36-19 107-94l102-108 98 106c55 59 102 103 106 99s12-89 19-188 15-204 18-233l6-52h88 89v38c0 20-14 210-30 422s-30 393-30 403c0 12-8 17-29 17-25 0-52-24-183-168l-154-168-153 168c-130 142-158 168-182 168-23 0-29-5-30-22z"/><path d="m7230 440v-440h90 90v440 440h-90-90z"/><path d="m7930 441v-441h95 95l2 246 3 246 255-246c225-217 259-245 288-246h32v440 440h-95-95l-2-246-3-246-254 243c-216 208-259 244-287 247l-34 3z"/><path d="m9220 440v-440h325 325v90 90h-230-230v40 40h170 170v90 90h-170-170v130 130h230 230v90 90h-325-325z"/></g></svg>