<svg height="407pt" preserveAspectRatio="xMidYMid meet" viewBox="0 0 5016 407" width="5016pt" xmlns="http://www.w3.org/2000/svg"><g transform="matrix(.1 0 0 -.1 0 407)"><path d="m19880 4039c-256-33-495-115-668-230-82-54-219-184-282-268-66-86-143-243-174-353-85-298-39-657 113-888 57-88 208-237 301-298 144-95 337-179 780-337 344-123 452-182 522-287 50-73 61-116 56-208-12-212-183-347-463-366-283-19-702 159-992 421-63 57-77 65-87 54-38-40-446-654-442-664 2-7 51-50 108-95 285-230 608-388 933-456 223-47 538-44 787 7 505 102 888 423 1026 859 69 218 76 444 21 657-26 100-103 260-167 344-113 149-295 284-507 377-49 21-243 96-430 166-405 152-507 200-579 270-75 74-100 131-100 231 0 95 23 151 87 215 76 75 193 116 357 127 264 16 603-117 857-335l72-62 196 322c108 176 194 326 191 333-7 18-103 97-187 154-217 144-499 253-782 301-127 21-414 26-547 9z"/><path d="m24333 2753c4-1367 4-1358 52-1599 69-343 225-608 470-798 146-113 287-187 465-244 208-66 399-92 680-92 287 0 475 26 690 96 236 77 417 191 583 365 161 168 255 339 316 571 68 256 65 184 68 1661l4 1337h-476-475v-1248c0-799-4-1278-10-1332-15-119-35-193-76-280-48-101-167-220-274-272-123-60-184-73-355-73-170 0-241 16-370 83-83 43-207 162-247 237s-75 207-87 330c-7 72-11 517-11 1332v1223h-476-475z"/><path d="m32397 4040c-435-33-813-169-1125-405-407-306-651-747-724-1305-15-121-15-478 1-590 35-251 95-458 186-648 279-581 810-948 1520-1054 135-20 558-17 710 6 526 76 879 234 1244 557l91 80v815 814h-860-860v-350-350h410 410v-290-290l-52-41c-169-134-473-209-801-196-306 11-548 116-748 324-216 224-329 536-329 909 0 650 319 1102 864 1226 120 27 348 29 486 4 257-46 481-163 681-353l76-73 302 262c165 143 301 266 301 273 0 16-209 219-287 278-264 202-601 333-973 381-150 19-388 26-523 16z"/><path d="m20 2031v-2001h470 470v734 733l368 6c256 4 398 10 471 21 358 54 588 162 788 369 226 235 323 498 323 877 0 246-35 413-125 595-149 303-434 521-788 605-222 53-215 52-1124 57l-853 4zm1517 1244c265-50 413-233 413-510 0-214-92-381-253-460-113-55-179-65-474-72l-263-6v532 531h249c178 0 272-4 328-15z"/><path d="m7560 4019c-117-13-310-56-433-96-142-47-376-164-492-248-439-316-704-799-766-1393-15-148-6-512 16-652 24-155 69-319 126-460 240-600 748-1001 1419-1120 157-28 493-38 662-21 591 62 1089 348 1390 797 196 294 301 624 329 1038 32 472-75 950-290 1296-303 487-808 792-1423 859-112 13-428 12-538 0zm406-779c243-31 446-131 610-302 210-219 318-498 331-858 26-716-377-1209-1013-1237-519-23-915 250-1067 734-43 137-60 263-60 443 0 310 67 558 210 773 216 325 595 496 989 447z"/><path d="m12770 2030v-2000h475 475v735 735h273c519 0 775 38 1015 150 216 101 405 278 516 481 181 331 194 861 31 1206-60 128-106 194-208 300-221 229-503 348-907 383-63 5-463 10-892 10h-778zm1528 1245c162-33 290-123 351-247 132-269 37-614-201-726-112-53-186-64-470-70l-258-5v532 531h250c186 0 271-4 328-15z"/><path d="m38675 4018c-3-7-338-899-745-1983-408-1083-743-1980-746-1992l-6-23h489 490l66 188c36 103 100 285 143 405l76 217h707 707l113-322c63-178 127-360 143-405l30-83h515c311 0 513 4 511 9-1 5-340 907-753 2005l-750 1996h-493c-385 0-494-3-497-12zm719-1749c131-379 236-692 234-695-3-2-221-3-484-2l-479 3 239 693c131 380 242 692 245 692s113-311 245-691z"/><path d="m44040 2026v-2006h475 475v765 765h143 142l417-763 417-762 551-3c302-1 550 0 550 3 0 2-225 374-500 825-275 452-498 825-495 830 4 6 11 10 17 10 24 0 202 92 271 139 87 60 217 191 274 276 121 181 185 388 199 649 20 358-100 675-339 902-196 185-444 296-784 350-94 15-216 18-960 21l-853 4zm1567 1249c204-39 363-182 402-363 26-124 7-281-46-372-57-96-182-190-300-225-90-26-204-35-444-35h-239v505 505h274c201 0 295-4 353-15z"/><path d="m49265 1456c-303-70-518-302-565-611-40-264 87-552 310-700 402-267 937-88 1096 367 36 101 45 294 19 401-60 249-235 440-480 523-98 33-281 43-380 20z"/></g></svg>